<svg xmlns="http://www.w3.org/2000/svg" viewBox="0 0 119.49 48"><defs><style>.cls-1{fill:#fff;}.cls-2{fill:#002955;}</style></defs><g id="Layer_2" data-name="Layer 2"><g id="Layer_1-2" data-name="Layer 1"><polygon class="cls-1" points="44.42 19.95 49.7 33.72 52.06 33.72 57.57 19.95 57.62 19.95 59.3 33.72 65.26 33.72 61.8 9.81 55.87 9.81 50.95 22.6 46.28 9.81 40.41 9.81 36.52 33.72 42.44 33.72 44.35 19.95 44.42 19.95"/><path class="cls-1" d="M24,29.4a9.22,9.22,0,0,1-6.39-2.76l-.88,5.87a13.1,13.1,0,0,0,7.49,2.15,10,10,0,0,0,6.68-2,8.08,8.08,0,0,0,3-6.46,9.11,9.11,0,0,0-2-6,6.75,6.75,0,0,0-5.46-2.6l-.63,0-1.88.16.4-2.73h7.93V9.81H20.25l-2,13a9.9,9.9,0,0,1,4.38-1,5.89,5.89,0,0,1,3.42,1,3.6,3.6,0,0,1,1.6,3.13,3.29,3.29,0,0,1-1.08,2.53A3.7,3.7,0,0,1,24,29.4Z"/><path class="cls-1" d="M96.82,16.92a5.58,5.58,0,0,0-5,2.63h-.06V17.44H86.22V33.72h5.54V25.28q0-3.77,2.89-3.76a2.13,2.13,0,0,1,2.27,1.54,10.76,10.76,0,0,1,.22,2.73v7.93h5.54v-10Q102.68,16.92,96.82,16.92Z"/><path class="cls-1" d="M83.71,25.94a9.34,9.34,0,0,0-2.25-6.62,8.22,8.22,0,0,0-6.29-2.4,8.59,8.59,0,0,0-6.24,2.3,8.54,8.54,0,0,0-2.4,6.38,8.27,8.27,0,0,0,2.58,6.45,9.27,9.27,0,0,0,6.45,2.21,9,9,0,0,0,5-1.35,6.53,6.53,0,0,0,3-4.24H78.17a2.79,2.79,0,0,1-2.64,1.5q-3.47,0-3.46-3.62H83.71ZM72.16,23.22a3,3,0,0,1,3.28-2.57,3.17,3.17,0,0,1,2,.7,2.94,2.94,0,0,1,1.1,1.87Z"/><path class="cls-2" d="M114.72,0H4.77A4.76,4.76,0,0,0,0,4.77V43.23A4.76,4.76,0,0,0,4.77,48h110a4.76,4.76,0,0,0,4.77-4.77V4.77A4.76,4.76,0,0,0,114.72,0ZM26.05,22.75a5.89,5.89,0,0,0-3.42-1,9.9,9.9,0,0,0-4.38,1l2-13H32.18v5.26H24.25l-.4,2.73,1.88-.16.63,0a6.75,6.75,0,0,1,5.46,2.6,9.11,9.11,0,0,1,2,6,8.08,8.08,0,0,1-3,6.46,10,10,0,0,1-6.68,2,13.1,13.1,0,0,1-7.49-2.15l.88-5.87A9.22,9.22,0,0,0,24,29.4a3.7,3.7,0,0,0,2.57-1,3.29,3.29,0,0,0,1.08-2.53A3.6,3.6,0,0,0,26.05,22.75Zm10.47,11L40.41,9.81h5.87L51,22.6,55.87,9.81H61.8l3.46,23.91h-6L57.62,20h0L52.06,33.72H49.7L44.42,20h-.07L42.44,33.72Zm39-3.55a2.79,2.79,0,0,0,2.64-1.5h5.34a6.53,6.53,0,0,1-3,4.24,9,9,0,0,1-5,1.35,9.27,9.27,0,0,1-6.45-2.21,8.27,8.27,0,0,1-2.58-6.45,8.54,8.54,0,0,1,2.4-6.38,8.59,8.59,0,0,1,6.24-2.3,8.22,8.22,0,0,1,6.29,2.4,9.34,9.34,0,0,1,2.25,6.62v.61H72.07Q72.07,30.17,75.53,30.17Zm27.15,3.55H97.14V25.79a10.76,10.76,0,0,0-.22-2.73,2.13,2.13,0,0,0-2.27-1.54q-2.9,0-2.89,3.76v8.44H86.22V17.44h5.54v2.11h.06a5.58,5.58,0,0,1,5-2.63q5.87,0,5.86,6.75Z"/><path class="cls-2" d="M77.47,21.35a3.17,3.17,0,0,0-2-.7,3,3,0,0,0-3.28,2.57h6.41A2.94,2.94,0,0,0,77.47,21.35Z"/></g></g></svg>