<svg xmlns="http://www.w3.org/2000/svg" viewBox="0 0 119.49 48"><defs><style>.cls-1{fill:#002955;}</style></defs><g id="Layer_2" data-name="Layer 2"><g id="Layer_1-2" data-name="Layer 1"><path class="cls-1" d="M114.72,0H4.77A4.76,4.76,0,0,0,0,4.77V43.23A4.76,4.76,0,0,0,4.77,48h110a4.76,4.76,0,0,0,4.77-4.77V4.77A4.76,4.76,0,0,0,114.72,0ZM30.9,32.67a10,10,0,0,1-6.68,2,13.1,13.1,0,0,1-7.49-2.15l.88-5.87A9.22,9.22,0,0,0,24,29.4a3.7,3.7,0,0,0,2.57-1,3.29,3.29,0,0,0,1.08-2.53,3.6,3.6,0,0,0-1.6-3.13,5.89,5.89,0,0,0-3.42-1,9.9,9.9,0,0,0-4.38,1l2-13H32.18v5.26H24.25l-.4,2.73,1.88-.16.63,0a6.75,6.75,0,0,1,5.46,2.6,9.11,9.11,0,0,1,2,6A8.08,8.08,0,0,1,30.9,32.67Zm28.4,1L57.62,20h0L52.06,33.72H49.7L44.42,20h-.07L42.44,33.72H36.52L40.41,9.81h5.87L51,22.6,55.87,9.81H61.8l3.46,23.91Zm24.41-7.17H72.07q0,3.61,3.46,3.62a2.79,2.79,0,0,0,2.64-1.5h5.34a6.53,6.53,0,0,1-3,4.24,9,9,0,0,1-5,1.35,9.27,9.27,0,0,1-6.45-2.21,8.27,8.27,0,0,1-2.58-6.45,8.54,8.54,0,0,1,2.4-6.38,8.59,8.59,0,0,1,6.24-2.3,8.22,8.22,0,0,1,6.29,2.4,9.34,9.34,0,0,1,2.25,6.62Zm19,7.17H97.14V25.79a10.76,10.76,0,0,0-.22-2.73,2.13,2.13,0,0,0-2.27-1.54q-2.9,0-2.89,3.76v8.44H86.22V17.44h5.54v2.11h.06a5.58,5.58,0,0,1,5-2.63q5.87,0,5.86,6.75Z"/><path class="cls-1" d="M77.47,21.35a3.17,3.17,0,0,0-2-.7,3,3,0,0,0-3.28,2.57h6.41A2.94,2.94,0,0,0,77.47,21.35Z"/></g></g></svg>